<svg xmlns="http://www.w3.org/2000/svg" style="display: none;">
  <!-- Íconos funcionales -->
  <symbol id="icon-home" viewBox="0 0 576 512" fill="currentColor">
    <path d="M575.8 255.5c0 18-15 32.1-32 32.1l-32 0 .7 160.2c0 2.7-.2 5.4-.5 8.1l0 16.2c0 22.1-17.9 40-40 40l-16 0c-1.1 0-2.2 0-3.3-.1c-1.4 .1-2.8 .1-4.2 .1L416 512l-24 0c-22.1 0-40-17.9-40-40l0-24 0-64c0-17.7-14.3-32-32-32l-64 0c-17.7 0-32 14.3-32 32l0 64 0 24c0 22.1-17.9 40-40 40l-24 0-31.9 0c-1.5 0-3-.1-4.5-.2c-1.2 .1-2.4 .2-3.6 .2l-16 0c-22.1 0-40-17.9-40-40l0-112c0-.9 0-1.9 .1-2.8l0-69.7-32 0c-18 0-32-14-32-32.1c0-9 3-17 10-24L266.4 8c7-7 15-8 22-8s15 2 21 7L564.8 231.5c8 7 12 15 11 24z"/>
  </symbol>
  <symbol id="icon-arrow" viewBox="0 0 24 24" fill="currentColor">
    <path d="M12 2l-10 10h6v8h8v-8h6L12 2z"/>
  </symbol>  

  <!-- Íconos personalizados para secciones -->
  <symbol id="icon-blog" viewBox="0 0 512 512" fill="currentColor">
    <path d="M192 32c0 17.7 14.3 32 32 32c123.7 0 224 100.3 224 224c0 17.7 14.3 32 32 32s32-14.3 32-32C512 128.9 383.1 0 224 0c-17.7 0-32 14.3-32 32zm0 96c0 17.7 14.3 32 32 32c70.7 0 128 57.3 128 128c0 17.7 14.3 32 32 32s32-14.3 32-32c0-106-86-192-192-192c-17.7 0-32 14.3-32 32zM96 144c0-26.5-21.5-48-48-48S0 117.5 0 144L0 368c0 79.5 64.5 144 144 144s144-64.5 144-144s-64.5-144-144-144l-16 0 0 96 16 0c26.5 0 48 21.5 48 48s-21.5 48-48 48s-48-21.5-48-48l0-224z"/>
  </symbol>
  <symbol id="icon-news" viewBox="0 0 512 512" fill="currentColor">
    <path d="M96 96c0-35.3 28.7-64 64-64l288 0c35.3 0 64 28.7 64 64l0 320c0 35.3-28.7 64-64 64L80 480c-44.2 0-80-35.8-80-80L0 128c0-17.7 14.3-32 32-32s32 14.3 32 32l0 272c0 8.8 7.2 16 16 16s16-7.2 16-16L96 96zm64 24l0 80c0 13.3 10.7 24 24 24l112 0c13.3 0 24-10.7 24-24l0-80c0-13.3-10.7-24-24-24L184 96c-13.3 0-24 10.7-24 24zm208-8c0 8.8 7.2 16 16 16l48 0c8.8 0 16-7.2 16-16s-7.2-16-16-16l-48 0c-8.8 0-16 7.2-16 16zm0 96c0 8.8 7.2 16 16 16l48 0c8.8 0 16-7.2 16-16s-7.2-16-16-16l-48 0c-8.8 0-16 7.2-16 16zM160 304c0 8.8 7.2 16 16 16l256 0c8.8 0 16-7.2 16-16s-7.2-16-16-16l-256 0c-8.8 0-16 7.2-16 16zm0 96c0 8.8 7.2 16 16 16l256 0c8.8 0 16-7.2 16-16s-7.2-16-16-16l-256 0c-8.8 0-16 7.2-16 16z"/>
  </symbol>
  <symbol id="icon-tools" viewBox="0 0 640 512" fill="currentColor" stroke="currentColor" stroke-width="0.5">
    <path d="M579.8 267.7c56.5-56.5 56.5-148 0-204.5c-50-50-128.8-56.5-186.3-15.4l-1.6 1.1c-14.4 10.3-17.7 30.3-7.4 44.6s30.3 17.7 44.6 7.4l1.6-1.1c32.1-22.9 76-19.3 103.8 8.6c31.5 31.5 31.5 82.5 0 114L422.3 334.8c-31.5 31.5-82.5 31.5-114 0c-27.9-27.9-31.5-71.8-8.6-103.8l1.1-1.6c10.3-14.4 6.9-34.4-7.4-44.6s-34.4-6.9-44.6 7.4l-1.1 1.6C206.5 251.2 213 330 263 380c56.5 56.5 148 56.5 204.5 0L579.8 267.7zM60.2 244.3c-56.5 56.5-56.5 148 0 204.5c50 50 128.8 56.5 186.3 15.4l1.6-1.1c14.4-10.3 17.7-30.3 7.4-44.6s-30.3-17.7-44.6-7.4l-1.6 1.1c-32.1 22.9-76 19.3-103.8-8.6C74 372 74 321 105.5 289.5L217.7 177.2c31.5-31.5 82.5-31.5 114 0c27.9 27.9 31.5 71.8 8.6 103.9l-1.1 1.6c-10.3 14.4-6.9 34.4 7.4 44.6s34.4 6.9 44.6-7.4l1.1-1.6C433.5 260.8 427 182 377 132c-56.5-56.5-148-56.5-204.5 0L60.2 244.3z"/>
  </symbol>
  <symbol id="icon-abbr" viewBox="0 0 512 512" fill="currentColor">
    <path d="M254 52.8C249.3 40.3 237.3 32 224 32s-25.3 8.3-30 20.8L57.8 416 32 416c-17.7 0-32 14.3-32 32s14.3 32 32 32l96 0c17.7 0 32-14.3 32-32s-14.3-32-32-32l-1.8 0 18-48 159.6 0 18 48-1.8 0c-17.7 0-32 14.3-32 32s14.3 32 32 32l96 0c17.7 0 32-14.3 32-32s-14.3-32-32-32l-25.8 0L254 52.8zM279.8 304l-111.6 0L224 155.1 279.8 304z"/>
  </symbol>
  <symbol id="icon-manual" viewBox="0 0 512 512" fill="currentColor">
    <path d="M471.6 21.7c-21.9-21.9-57.3-21.9-79.2 0L362.3 51.7l97.9 97.9 30.1-30.1c21.9-21.9 21.9-57.3 0-79.2L471.6 21.7zm-299.2 220c-6.1 6.1-10.8 13.6-13.5 21.9l-29.6 88.8c-2.9 8.6-.6 18.1 5.8 24.6s15.9 8.7 24.6 5.8l88.8-29.6c8.2-2.7 15.7-7.4 21.9-13.5L437.7 172.3 339.7 74.3 172.4 241.7zM96 64C43 64 0 107 0 160L0 416c0 53 43 96 96 96l256 0c53 0 96-43 96-96l0-96c0-17.7-14.3-32-32-32s-32 14.3-32 32l0 96c0 17.7-14.3 32-32 32L96 448c-17.7 0-32-14.3-32-32l0-256c0-17.7 14.3-32 32-32l96 0c17.7 0 32-14.3 32-32s-14.3-32-32-32L96 64z"/>
  </symbol>
</svg>